<svg xmlns="http://www.w3.org/2000/svg" viewBox="0 0 219.15061 219.15055">
    <path fill="currentColor"
        d="M0,199.16723V19.98333A19.98334,19.98334,0,0,1,19.98335,0H80.5162a12.7445,12.7445,0,0,1-3.03086,2.7372C71.807,6.2048,65.32817,7.48978,59.201,9.72628c-9.36419,3.41888-17.62022,7.91744-21.50593,18.05882A258.33,258.33,0,0,0,29.0056,55.30274c-4.87581,18.78214-7.89441,37.95144-11.2262,57.04358-2.43139,13.93216-4.732,27.89226-6.67356,41.896-1.68507,12.15983-2.79562,24.3939-4.14212,36.59978-.71437,6.46534-2.49268,12.7199-3.83646,19.06317A19.88977,19.88977,0,0,1,0,199.1672ZM199.16726,0a19.98334,19.98334,0,0,1,19.98335,19.98332V199.16723a19.96141,19.96141,0,0,1-8.64922,16.46039c.50969-4.07544,1.10655-8.14093,1.995-12.1744,2.25973-10.2566,3.20617-20.70056,4.10124-31.16736a229.31241,229.31241,0,0,0-3.0907-59.90867,488.53235,488.53235,0,0,0-16.55566-65.15354,165.82093,165.82093,0,0,0-13.91914-32.39343c-3.832-6.59153-9.55128-10.15918-17.02526-11.42875a9.29909,9.29909,0,0,0-1.90875-.05292,4.4994,4.4994,0,0,1-3.05915-.5652A14.56406,14.56406,0,0,0,153.8236,0ZM137.79658,211.42717c7.474-.93607,14.99645-1.74411,22.13417-4.41151,1.08-.40257,2.38293-.736,2.41352-2.13631.03878-1.76725.24539-3.52487.452-5.28152a36.51267,36.51267,0,0,0,.35074-8.02989c-.141-1.35164.32325-1.96468,1.51074-2.02375,2.35954-.12053,3.14182-1.65926,3.55475-3.63936,1.43625-6.88386,1.32853-13.87309,1.2157-20.83121-.1615-10.15152.13092-20.27484.97727-30.38535a21.41417,21.41417,0,0,1,.44621-2.31591c.85676.36666.89,1.25667,1.10553,1.94928a70.85884,70.85884,0,0,1,3.32648,15.51691c.67211,8.53058,1.33379,17.0484,4.71932,25.0607l.00482.01182c.39392.93581.83965,1.99529.39272,2.91472-1.86515,3.83945-1.22464,7.58127-.56965,11.40748l.00024.00144c.17452,1.01945.35,2.04472.47949,3.0796.58991,4.71669.71041,9.53076-1.12073,14.49359-1.42989,3.87669-1.61676,8.10243-1.5747,12.34265H33.30267c1.01088-4.40418,2.617-8.62732,3.3895-13.14035.80542-4.70126,3.01115-9.2562,3.84982-14.07557,1.47485-8.46117,5.28345-16.25818,6.95065-24.64a72.73772,72.73772,0,0,1,6.37089-18.24071c.154-.31049.36425-.59519.54891-.89.0335.11813.07737.23673.121.35484l.00048.00145a2.14795,2.14795,0,0,1,.18128.749c-.07713,4.73982-.22057,9.47436-.27192,14.21177-.0082.763.0598,1.53319.12776,2.30146v.00193a14.80382,14.80382,0,0,1,.0364,3.48c-.78491,5.20918-.61063,10.462-1.01055,15.68373a4.82,4.82,0,0,0,3.029,5.21425,2.69381,2.69381,0,0,1,1.71326,2.9034,97.65728,97.65728,0,0,0,.54481,10.68764l.04242.48721c.29242,3.34189,2.18791,4.50888,5.0349,5.10407a180.72818,180.72818,0,0,0,41.59058,3.42385,210.80415,210.80415,0,0,0,32.24468-1.34129Zm37.524-129.69957a25.803,25.803,0,0,0-39.87177-21.68581A38.74179,38.74179,0,1,0,71.88827,97.64512v15.892a51.69154,51.69154,0,1,1,70.99864-69.93627,38.7153,38.7153,0,0,1,19.50294,74.658V104.09772a25.82631,25.82631,0,0,0,12.93078-22.37017ZM97.74281,139.90928a6.46392,6.46392,0,1,1-12.92783,0v-51.716a6.46392,6.46392,0,1,1,12.92783,0Zm51.71776,0a6.46549,6.46549,0,0,1-12.931,0v-51.716a6.46549,6.46549,0,1,1,12.931,0ZM110.67238,101.124a6.46609,6.46609,0,0,1,12.93218,0v51.7146a6.46609,6.46609,0,0,1-12.93218,0Z" />
</svg>